<svg id="Camada_1" data-name="Camada 1" xmlns="http://www.w3.org/2000/svg" xmlns:xlink="http://www.w3.org/1999/xlink" viewBox="0 0 1045 363"><defs><style>.cls-1{fill:url(#Gradiente_sem_nome_17);}.cls-2{fill:url(#Gradiente_sem_nome_17-2);}.cls-3{fill:url(#Gradiente_sem_nome_17-3);}.cls-4{fill:url(#Gradiente_sem_nome_35);}.cls-5{fill:#fff;}</style><linearGradient id="Gradiente_sem_nome_17" x1="268.49" y1="220.32" x2="211.55" y2="85.83" gradientTransform="translate(0 0)" gradientUnits="userSpaceOnUse"><stop offset="0" stop-color="#efefef"/><stop offset="0.17" stop-color="#ebebeb"/><stop offset="0.33" stop-color="#e0e0e0"/><stop offset="0.49" stop-color="#cdcdce"/><stop offset="0.64" stop-color="#b3b3b4"/><stop offset="0.79" stop-color="#919193"/><stop offset="0.93" stop-color="#68686b"/><stop offset="1" stop-color="#525255"/></linearGradient><linearGradient id="Gradiente_sem_nome_17-2" x1="186.78" y1="101.08" x2="77.76" y2="160.9" xlink:href="#Gradiente_sem_nome_17"/><linearGradient id="Gradiente_sem_nome_17-3" x1="116.83" y1="202.07" x2="154.01" y2="273.21" xlink:href="#Gradiente_sem_nome_17"/><linearGradient id="Gradiente_sem_nome_35" x1="181.25" y1="246.22" x2="310.12" y2="230.78" gradientTransform="translate(0 0)" gradientUnits="userSpaceOnUse"><stop offset="0" stop-color="#efefef"/><stop offset="0.12" stop-color="#ebebeb"/><stop offset="0.24" stop-color="#e0e0e0"/><stop offset="0.35" stop-color="#cdcdce"/><stop offset="0.45" stop-color="#b3b3b4"/><stop offset="0.56" stop-color="#919193"/><stop offset="0.66" stop-color="#68686b"/><stop offset="0.71" stop-color="#525255"/></linearGradient></defs><path class="cls-1" d="M175.41,108.5s0,0,0,0c1.64-2,4.92-1.37,6.75.44l70.89,70.31.78.78a3.72,3.72,0,0,1,0,5.29h0c.42,0,1.49.92,1.49.92s.84.86.9,1c5.83,9.74,10.62,17,13.71,28.21a.79.79,0,0,0,1.32.38l19.87-19.87a18.75,18.75,0,0,0,0-26.5l-85-85A14.2,14.2,0,0,0,182.37,91Z"/><path class="cls-2" d="M80.12,183.37l27.05,5.3-1.23-2.41a4,4,0,0,1,.75-4.72L177,107.06l2.43-2.14c9-7.9,21.4-11.1,33.24-14.32L191,68.91a17.12,17.12,0,0,0-24.2,0L75.48,160.25A14.16,14.16,0,0,0,80.12,183.37Z"/><path class="cls-3" d="M182.6,256.58a5.29,5.29,0,0,1-7.49,0l-68.26-68.91c-2.9-2.92-12.3-15.82-14.32-19.41-4.11-7.29-5.78-15.33-6.48-18.8L72.26,163.24a27.42,27.42,0,0,0,0,38.78l73.25,73.25a26.75,26.75,0,0,0,42.66-6.6l2.46-4.74a9.58,9.58,0,0,0,.66-7.18h0a4.25,4.25,0,0,0-7.08-1.77Z"/><path class="cls-4" d="M185.05,254.1c-8,8.08-30.66,20.84-39.66,21l17.37,17.37a22.48,22.48,0,0,0,31.78,0l75.81-75.81c-3.1-11.67-12.75-29.4-15.9-32C254.45,184.73,203.17,235.71,185.05,254.1Z"/><path class="cls-5" d="M330.53,110.72a56.81,56.81,0,0,1,8.54-1.15c2.62-.12,4.9-.19,6.82-.19,2.55,0,5.11.07,7.67.19a40.18,40.18,0,0,1,7.11,1l21.69,73.91,21.31-73.91q3.25-.57,6.91-.86t7.29-.29c1.92,0,4.13.07,6.62.19a61.48,61.48,0,0,1,8.55,1.15l-37.63,99.06a72.31,72.31,0,0,1-7.68.77c-2.68.12-4.92.19-6.72.19s-4.09-.07-6.52-.19a39.42,39.42,0,0,1-6.91-1Z"/><path class="cls-5" d="M447.24,168.51q.76,11.51,8.06,16.7t19.2,5.18a73.24,73.24,0,0,0,13.34-1.25,75.28,75.28,0,0,0,13-3.55,44.84,44.84,0,0,1,3.65,9.21,47.55,47.55,0,0,1,1.73,11.52q-15,5.76-33.79,5.76-13.81,0-23.71-3.84a42,42,0,0,1-16.12-10.65,42.83,42.83,0,0,1-9.22-16.22,67.92,67.92,0,0,1-3-20.54,66.92,66.92,0,0,1,3.07-20.54,47.84,47.84,0,0,1,9.12-16.7,43,43,0,0,1,15-11.23,49.19,49.19,0,0,1,20.83-4.13,44.32,44.32,0,0,1,18.43,3.65,40.48,40.48,0,0,1,13.72,10,41.84,41.84,0,0,1,8.54,15.07,59.37,59.37,0,0,1,2.88,18.71q0,3.66-.28,7.2c-.2,2.37-.42,4.26-.68,5.67Zm39-19q-.39-9.21-5.09-14.88T468,129q-9.6,0-14.58,5.38t-6,15.16Z"/><path class="cls-5" d="M515.39,110.53q2.88-.57,5.47-.86a51.89,51.89,0,0,1,5.66-.29,42.52,42.52,0,0,1,5.67.38q2.77.39,5.47,1a11.39,11.39,0,0,1,1.05,2.79c.32,1.22.61,2.49.87,3.84s.48,2.68.67,4l.48,3.36a49.49,49.49,0,0,1,10.36-10.66q6.15-4.69,15.36-4.7c1.28,0,2.75.07,4.42.19a16.3,16.3,0,0,1,3.64.58,36.86,36.86,0,0,1,.58,4.41c.13,1.67.19,3.4.19,5.19,0,2.17-.09,4.54-.29,7.1a51.15,51.15,0,0,1-1,7.29,27.06,27.06,0,0,0-4.71-.38h-3.16a44.55,44.55,0,0,0-7.3.67,16.83,16.83,0,0,0-7.68,3.55,21,21,0,0,0-6,8.64q-2.4,5.76-2.4,16.13V210a65.19,65.19,0,0,1-6.91.77c-2.31.12-4.55.19-6.72.19s-4.39-.07-6.62-.19-4.58-.39-7-.77Z"/><path class="cls-5" d="M718.44,143.77a15.78,15.78,0,0,0-1.54-7.48,11.4,11.4,0,0,0-4.22-4.51,17.45,17.45,0,0,0-6.62-2.21,59.86,59.86,0,0,0-8.74-.58,68.07,68.07,0,0,0-22.07,4,50.77,50.77,0,0,1-4-9.4,36.38,36.38,0,0,1-1.35-10.56,101.14,101.14,0,0,1,16.9-4.22,100,100,0,0,1,15.74-1.35q20,0,31.19,9.6t11.23,30.71v57.59a157,157,0,0,1-16.32,4,111.15,111.15,0,0,1-21.69,1.92A87,87,0,0,1,689,209.62a38.72,38.72,0,0,1-14-5.76,27.1,27.1,0,0,1-9-10.37q-3.16-6.33-3.17-15.55t3.94-15.45a30.23,30.23,0,0,1,10.17-10,45,45,0,0,1,13.92-5.38,74.08,74.08,0,0,1,15.35-1.63q5.57,0,12.29.58Zm0,19.78c-1.54-.26-3.2-.48-5-.68a45.85,45.85,0,0,0-4.8-.28q-9.4,0-14.88,3.36t-5.47,10.84q0,5,2.11,7.68a12.58,12.58,0,0,0,5.09,3.93,20.54,20.54,0,0,0,6.33,1.54q3.36.28,5.86.29a35,35,0,0,0,5.76-.48c1.92-.32,3.58-.61,5-.87Z"/><path class="cls-5" d="M619.56,212.94c-26.1,0-44.32-15.22-45.45-34.56h26.48c.94,7.89,8.27,13.9,18.78,13.9,10.33,0,16-4.7,16-10.71,0-18.59-58.79-6.76-58.79-44.89,0-17.27,15.4-31.17,41.13-31.17,25.17,0,40.38,13.71,41.89,34.37H634.4c-.75-8.08-7.14-13.53-17.47-13.53-9.76,0-14.83,4-14.83,10,0,19,57.65,7.14,58.4,45.26C660.5,199.41,644.92,212.94,619.56,212.94Z"/><path class="cls-5" d="M823.82,129.61a24.74,24.74,0,0,1-6,16.76q-6,6.9-16.76,9.49v.44q12.74,1.57,19.27,7.73t6.55,16.58q0,15.16-11,23.62t-31.44,8.45q-17.12,0-30.35-5.68V188.09a68.54,68.54,0,0,0,13.45,5,56.83,56.83,0,0,0,14.53,1.94q11,0,16.26-3.74c3.49-2.49,5.25-6.49,5.25-12q0-7.41-6.05-10.5t-19.27-3.09h-8V148.67h8.12q12.23,0,17.88-3.2t5.64-11q0-11.94-15-11.94a34.34,34.34,0,0,0-10.54,1.73,51.36,51.36,0,0,0-11.9,6l-10.28-15.32q14.38-10.36,34.3-10.36,16.33,0,25.79,6.62T823.82,129.61Z"/><path class="cls-5" d="M830.4,166.58q0-31.22,13.2-46.46t39.53-15.25A71.55,71.55,0,0,1,897.22,106v17.76a58.1,58.1,0,0,0-12.66-1.43q-11.43,0-18.66,3.45a23.2,23.2,0,0,0-10.83,10.21q-3.59,6.76-4.24,19.2h.94q7.11-12.22,22.8-12.22,14.08,0,22.08,8.84t8,24.46q0,16.83-9.49,26.65t-26.33,9.81a37.63,37.63,0,0,1-20.32-5.39,35,35,0,0,1-13.37-15.75Q830.41,181.18,830.4,166.58Zm38,28.34q7.13,0,10.93-4.78t3.82-13.63q0-7.69-3.57-12.12T868.81,160a16.48,16.48,0,0,0-11.54,4.39,13.47,13.47,0,0,0-4.78,10.21A23.12,23.12,0,0,0,857,189,13.78,13.78,0,0,0,868.38,194.92Z"/><path class="cls-5" d="M980.77,158.67q0,27.54-9,40.78t-27.8,13.23q-18.2,0-27.44-13.66t-9.24-40.35q0-27.84,9-41t27.69-13.2q18.19,0,27.51,13.81T980.77,158.67Zm-51.43,0q0,19.35,3.35,27.73t11.25,8.37q7.77,0,11.22-8.48t3.46-27.62q0-19.35-3.49-27.8t-11.19-8.45q-7.83,0-11.22,8.45T929.34,158.67Z"/><path class="cls-5" d="M357.44,266.91V226.14h2.84v40.77Z"/><path class="cls-5" d="M392.27,266.91V247.25q0-4.58-1.92-6.65t-6-2.08c-3.62,0-6.28.91-8,2.75s-2.53,4.8-2.53,8.91v16.73h-2.76V236.59h2.35l.53,4.16h.16q3-4.74,10.52-4.74Q395,236,395,247.08v19.83Z"/><path class="cls-5" d="M412.83,265a20.53,20.53,0,0,0,4.57-.44v2.23a14.52,14.52,0,0,1-4.63.67c-2.67,0-4.65-.72-5.92-2.15s-1.91-3.68-1.91-6.75V239h-4.49v-1.61l4.49-1.26,1.39-6.86h1.42v7.33h8.9V239h-8.9v19.19a8.72,8.72,0,0,0,1.23,5.16A4.44,4.44,0,0,0,412.83,265Z"/><path class="cls-5" d="M436.2,267.47q-6.61,0-10.3-4.07T422.2,252q0-7.25,3.57-11.62a11.78,11.78,0,0,1,9.62-4.36,10.36,10.36,0,0,1,8.45,3.74q3.11,3.74,3.1,10.15v2.23H425.1q.06,6.24,2.92,9.54T436.2,265a25.55,25.55,0,0,0,4.56-.36,27.74,27.74,0,0,0,5-1.57v2.51a21.33,21.33,0,0,1-4.74,1.52A26.27,26.27,0,0,1,436.2,267.47Zm-.81-29a9.11,9.11,0,0,0-7,2.89c-1.76,1.92-2.79,4.7-3.09,8.32H444q0-5.26-2.29-8.24A7.53,7.53,0,0,0,435.39,238.46Z"/><path class="cls-5" d="M458.07,266.91h-2.76v-43.4h2.76Z"/><path class="cls-5" d="M467.83,228.17c0-1.78.58-2.68,1.76-2.68a1.58,1.58,0,0,1,1.35.7,3.49,3.49,0,0,1,.49,2,3.53,3.53,0,0,1-.49,2,1.54,1.54,0,0,1-1.35.73C468.41,230.88,467.83,230,467.83,228.17ZM471,266.91h-2.76V236.59H471Z"/><path class="cls-5" d="M504.78,236.59v1.93l-6.27.39a10.72,10.72,0,0,1,2.51,6.86,9.24,9.24,0,0,1-2.92,7.1,11,11,0,0,1-7.82,2.72,17.07,17.07,0,0,1-2.9-.17,7.28,7.28,0,0,0-2.51,2,4.08,4.08,0,0,0-.86,2.48,2.29,2.29,0,0,0,1.1,2.12,7.54,7.54,0,0,0,3.69.67h5.3q4.93,0,7.56,2a7,7,0,0,1,2.62,5.9,8.39,8.39,0,0,1-3.89,7.41q-3.88,2.6-11.09,2.6-5.71,0-8.85-2.2a7.08,7.08,0,0,1-3.14-6.14,7.27,7.27,0,0,1,1.94-5.18,10,10,0,0,1,5.26-2.82,5.33,5.33,0,0,1-2.19-1.66,4,4,0,0,1-.82-2.47c0-2,1.29-3.81,3.87-5.35a8.75,8.75,0,0,1-4.13-3.42,9.78,9.78,0,0,1-1.47-5.34,9.6,9.6,0,0,1,2.88-7.29,10.83,10.83,0,0,1,7.8-2.75,14.42,14.42,0,0,1,4.63.58ZM480.24,272q0,6.25,9.29,6.25,11.94,0,11.94-7.61a4.38,4.38,0,0,0-1.87-4q-1.87-1.23-6.06-1.23h-5Q480.24,265.49,480.24,272Zm2.32-26a7,7,0,0,0,2.13,5.45,9.56,9.56,0,0,0,11.52,0,7.35,7.35,0,0,0,2-5.58q0-3.88-2.08-5.82a8.19,8.19,0,0,0-5.81-1.94,7.75,7.75,0,0,0-5.71,2.08A7.86,7.86,0,0,0,482.56,246.05Z"/><path class="cls-5" d="M523.25,267.47q-6.62,0-10.31-4.07T509.25,252q0-7.25,3.57-11.62a11.77,11.77,0,0,1,9.62-4.36,10.36,10.36,0,0,1,8.45,3.74q3.09,3.74,3.1,10.15v2.23H512.15c0,4.16,1,7.34,2.91,9.54s4.64,3.29,8.19,3.29a25.55,25.55,0,0,0,4.56-.36,27.74,27.74,0,0,0,5-1.57v2.51a21.4,21.4,0,0,1-4.75,1.52A26.24,26.24,0,0,1,523.25,267.47Zm-.81-29a9.11,9.11,0,0,0-7,2.89c-1.77,1.92-2.8,4.7-3.1,8.32h18.75c0-3.51-.77-6.26-2.29-8.24A7.54,7.54,0,0,0,522.44,238.46ZM514,231.85q1.72-1.86,3.66-4.35a47,47,0,0,0,3.09-4.35h2.73a53.24,53.24,0,0,0,6.75,8.7v.45h-2a66.21,66.21,0,0,1-6.17-5.77A68.64,68.64,0,0,1,516,232.3h-2Z"/><path class="cls-5" d="M563.49,266.91V247.25q0-4.58-1.92-6.65t-6-2.08c-3.63,0-6.28.91-8,2.75s-2.53,4.8-2.53,8.91v16.73h-2.76V236.59h2.35l.52,4.16h.17q3-4.74,10.52-4.74,10.32,0,10.32,11.07v19.83Z"/><path class="cls-5" d="M588.15,267.47q-6.49,0-10.18-4.1t-3.68-11.44q0-7.53,3.82-11.72t10.46-4.2a20.85,20.85,0,0,1,7.53,1.37l-.76,2.45a22.21,22.21,0,0,0-6.83-1.31c-3.72,0-6.53,1.15-8.45,3.44s-2.87,5.61-2.87,9.92q0,6.13,2.87,9.61a9.86,9.86,0,0,0,8,3.47,19.64,19.64,0,0,0,7.67-1.48v2.57A17.48,17.48,0,0,1,588.15,267.47Z"/><path class="cls-5" d="M602.79,228.17c0-1.78.59-2.68,1.76-2.68a1.57,1.57,0,0,1,1.35.7,3.41,3.41,0,0,1,.49,2,3.45,3.45,0,0,1-.49,2,1.53,1.53,0,0,1-1.35.73C603.38,230.88,602.79,230,602.79,228.17Zm3.15,38.74h-2.76V236.59h2.76Z"/><path class="cls-5" d="M634.5,266.91l-.7-4.8h-.22a14.3,14.3,0,0,1-4.7,4.15,12.67,12.67,0,0,1-5.7,1.21,9.86,9.86,0,0,1-6.95-2.29,8.18,8.18,0,0,1-2.48-6.33,7.8,7.8,0,0,1,3.7-6.89q3.69-2.44,10.69-2.59l5.78-.17v-2q0-4.32-1.76-6.52t-5.66-2.21a18.84,18.84,0,0,0-8.73,2.35l-1-2.4a23.11,23.11,0,0,1,9.87-2.35c3.33,0,5.81.87,7.46,2.6s2.47,4.42,2.47,8.09v20.16Zm-11.15-2a10.4,10.4,0,0,0,7.65-2.78q2.81-2.78,2.8-7.71v-3l-5.29.22c-4.26.21-7.3.87-9.11,2a5.73,5.73,0,0,0-2.72,5.25,5.65,5.65,0,0,0,1.74,4.42A7.12,7.12,0,0,0,623.35,265Z"/><path class="cls-5" d="M672.29,236a12.57,12.57,0,0,1,5.69,1.2,11.32,11.32,0,0,1,4.3,4.1h.17c-.12-2.34-.17-4.64-.17-6.89V223.51H685v43.4H683.2l-.7-4.63h-.22a11.23,11.23,0,0,1-9.93,5.19q-6.27,0-9.59-3.91t-3.32-11.38q0-7.86,3.29-12T672.29,236Zm0,2.51c-3.31,0-5.79,1.16-7.46,3.48s-2.49,5.7-2.49,10.13q0,12.89,10,12.88,5.13,0,7.53-3t2.4-9.85v-.47q0-7-2.36-10.11T672.29,238.52Z"/><path class="cls-5" d="M707.44,267.47q-6.62,0-10.31-4.07T693.44,252q0-7.25,3.57-11.62a11.75,11.75,0,0,1,9.62-4.36,10.37,10.37,0,0,1,8.45,3.74q3.09,3.74,3.09,10.15v2.23H696.34q0,6.24,2.91,9.54c1.91,2.19,4.63,3.29,8.19,3.29a25.55,25.55,0,0,0,4.56-.36,27.43,27.43,0,0,0,5-1.57v2.51a21.33,21.33,0,0,1-4.74,1.52A26.24,26.24,0,0,1,707.44,267.47Zm-.81-29a9.11,9.11,0,0,0-7,2.89c-1.77,1.92-2.8,4.7-3.1,8.32h18.75c0-3.51-.77-6.26-2.29-8.24A7.56,7.56,0,0,0,706.63,238.46Z"/><path class="cls-5" d="M771.72,266.91h-2.87l-24.15-36.2h-.23c.23,4.31.34,7.57.34,9.76v26.44h-2.73V226.14h2.84l24.13,36.14h.16c-.16-3.35-.25-6.52-.25-9.54v-26.6h2.76Z"/><path class="cls-5" d="M794.82,267.47q-6.62,0-10.31-4.07T780.82,252q0-7.25,3.57-11.62A11.77,11.77,0,0,1,794,236a10.37,10.37,0,0,1,8.45,3.74q3.09,3.74,3.09,10.15v2.23H783.72q0,6.24,2.91,9.54c1.91,2.19,4.63,3.29,8.19,3.29a25.55,25.55,0,0,0,4.56-.36,27.43,27.43,0,0,0,5-1.57v2.51a21.33,21.33,0,0,1-4.74,1.52A26.24,26.24,0,0,1,794.82,267.47Zm-.81-29a9.11,9.11,0,0,0-7,2.89c-1.77,1.92-2.8,4.7-3.1,8.32h18.75c0-3.51-.77-6.26-2.29-8.24A7.56,7.56,0,0,0,794,238.46Z"/><path class="cls-5" d="M837.57,236.59v1.93l-6.27.39a10.72,10.72,0,0,1,2.51,6.86,9.24,9.24,0,0,1-2.92,7.1,11,11,0,0,1-7.82,2.72,17.07,17.07,0,0,1-2.9-.17,7.28,7.28,0,0,0-2.51,2,4.09,4.09,0,0,0-.87,2.48,2.29,2.29,0,0,0,1.11,2.12,7.54,7.54,0,0,0,3.69.67h5.3q4.93,0,7.56,2a7,7,0,0,1,2.62,5.9,8.41,8.41,0,0,1-3.89,7.41q-3.88,2.6-11.09,2.6-5.72,0-8.85-2.2a7.08,7.08,0,0,1-3.14-6.14,7.27,7.27,0,0,1,1.94-5.18,10,10,0,0,1,5.26-2.82,5.33,5.33,0,0,1-2.19-1.66,4,4,0,0,1-.83-2.47c0-2,1.3-3.81,3.88-5.35a8.7,8.7,0,0,1-4.13-3.42,9.78,9.78,0,0,1-1.48-5.34,9.61,9.61,0,0,1,2.89-7.29,10.81,10.81,0,0,1,7.8-2.75,14.42,14.42,0,0,1,4.63.58ZM813,272q0,6.25,9.29,6.25,11.92,0,11.93-7.61a4.36,4.36,0,0,0-1.87-4q-1.86-1.23-6-1.23h-5Q813,265.49,813,272Zm2.31-26a7,7,0,0,0,2.14,5.45,9.56,9.56,0,0,0,11.52,0,7.39,7.39,0,0,0,2-5.58q0-3.88-2.08-5.82a8.19,8.19,0,0,0-5.81-1.94,7.75,7.75,0,0,0-5.71,2.08A7.86,7.86,0,0,0,815.34,246.05Z"/><path class="cls-5" d="M868.87,251.71q0,7.43-3.6,11.59t-9.93,4.17a12.81,12.81,0,0,1-7-1.93,12.27,12.27,0,0,1-4.66-5.52,20.07,20.07,0,0,1-1.61-8.31q0-7.41,3.59-11.56t9.88-4.14a12.16,12.16,0,0,1,9.8,4.2Q868.87,244.4,868.87,251.71Zm-23.93,0q0,6.25,2.74,9.75a10.37,10.37,0,0,0,15.54,0Q866,258,866,251.71T863.19,242a9.42,9.42,0,0,0-7.8-3.46,9.29,9.29,0,0,0-7.73,3.44Q844.93,245.41,844.94,251.71Zm7.69-19.86q2-2.21,4-4.78a32.61,32.61,0,0,0,2.72-3.92h3.94v.48a30.41,30.41,0,0,1-3.42,3.84q-2.42,2.4-5.31,4.83h-2Z"/><path class="cls-5" d="M889.37,267.47q-6.51,0-10.18-4.1t-3.69-11.44q0-7.53,3.82-11.72t10.46-4.2a20.77,20.77,0,0,1,7.53,1.37l-.75,2.45a22.21,22.21,0,0,0-6.83-1.31q-5.58,0-8.45,3.44t-2.88,9.92q0,6.13,2.88,9.61a9.85,9.85,0,0,0,8,3.47,19.64,19.64,0,0,0,7.67-1.48v2.57A17.51,17.51,0,0,1,889.37,267.47Z"/><path class="cls-5" d="M904,228.17c0-1.78.58-2.68,1.76-2.68a1.58,1.58,0,0,1,1.35.7,3.49,3.49,0,0,1,.49,2,3.53,3.53,0,0,1-.49,2,1.54,1.54,0,0,1-1.35.73C904.59,230.88,904,230,904,228.17Zm3.15,38.74H904.4V236.59h2.76Z"/><path class="cls-5" d="M942.39,251.71q0,7.43-3.6,11.59t-9.93,4.17a12.81,12.81,0,0,1-7-1.93,12.27,12.27,0,0,1-4.66-5.52,20.07,20.07,0,0,1-1.62-8.31q0-7.41,3.6-11.56T929,236a12.16,12.16,0,0,1,9.8,4.2Q942.39,244.4,942.39,251.71Zm-23.94,0q0,6.25,2.75,9.75a10.37,10.37,0,0,0,15.54,0q2.75-3.49,2.74-9.75T936.71,242a9.42,9.42,0,0,0-7.8-3.46,9.32,9.32,0,0,0-7.74,3.44Q918.46,245.41,918.45,251.71Z"/><path class="cls-5" d="M969.58,259a7.2,7.2,0,0,1-3.1,6.26q-3.09,2.19-8.78,2.19c-4.06,0-7.27-.62-9.65-1.87v-3a21.34,21.34,0,0,0,9.65,2.28c3,0,5.26-.49,6.82-1.49a4.54,4.54,0,0,0,2.33-4,4.83,4.83,0,0,0-1.86-3.85,20.42,20.42,0,0,0-6.09-3.07,35.32,35.32,0,0,1-6.39-2.83,8.84,8.84,0,0,1-2.78-2.68,6.74,6.74,0,0,1-.93-3.64,6.2,6.2,0,0,1,2.86-5.38c1.9-1.32,4.57-2,8-2a23.83,23.83,0,0,1,9.31,1.84l-1,2.51a21.74,21.74,0,0,0-8.28-1.84,12,12,0,0,0-5.89,1.23,3.75,3.75,0,0,0-2.17,3.4,4.69,4.69,0,0,0,1.69,3.79,23.34,23.34,0,0,0,6.59,3.18,32.77,32.77,0,0,1,6,2.66,8.65,8.65,0,0,1,2.8,2.7A6.5,6.5,0,0,1,969.58,259Z"/></svg>